<?xml version="1.0" encoding="UTF-8"?>
<svg version="1.1" xmlns="http://www.w3.org/2000/svg" width="500" height="500">
<path d="M0 0 C1.18249832 -0.01455482 1.18249832 -0.01455482 2.3888855 -0.02940369 C4.92467419 -0.05419905 7.46019613 -0.06691595 9.99609375 -0.07421875 C10.86364288 -0.07683716 11.73119202 -0.07945557 12.62503052 -0.08215332 C26.91628776 -0.08676728 40.47022974 1.03278349 54.43359375 4.23828125 C55.87874369 4.54244005 57.32404711 4.84587093 58.76953125 5.1484375 C92.3575445 12.5395023 123.34522502 31.07616035 148.75878906 53.77246094 C150.34237314 55.15844327 151.96203645 56.4819196 153.6015625 57.80078125 C156.37923722 60.19149715 158.54686799 62.61277861 160.80859375 65.48828125 C163.56026356 68.94279827 166.35118006 72.26703998 169.37109375 75.48828125 C174.80603301 81.54866987 179.0784729 88.38643036 183.43359375 95.23828125 C183.82192383 95.83914551 184.21025391 96.44000977 184.61035156 97.05908203 C202.83939887 125.38337886 214.44431859 160.16135317 214.63671875 193.98046875 C214.64241882 194.78831818 214.6481189 195.5961676 214.6539917 196.42849731 C214.66337385 198.13102947 214.6699484 199.83357923 214.67382812 201.53613281 C214.68343964 204.07261159 214.71448894 206.60824501 214.74609375 209.14453125 C214.82149215 220.77623629 213.62829655 231.82252746 211.43359375 243.23828125 C211.24007324 244.26775879 211.04655273 245.29723633 210.84716797 246.35791016 C205.60811433 272.5137499 194.58343305 297.33056117 179.43359375 319.23828125 C178.80066406 320.16511719 178.16773438 321.09195312 177.515625 322.046875 C155.37575178 353.49918974 125.4338436 376.72690755 90.43359375 392.23828125 C89.37269531 392.71136719 88.31179688 393.18445313 87.21875 393.671875 C84.31126468 394.92463042 81.38800075 396.10077632 78.43359375 397.23828125 C77.38042969 397.64691406 76.32726562 398.05554688 75.2421875 398.4765625 C58.32904736 404.58041084 39.57420936 408.34255774 21.5703125 408.44140625 C20.73885208 408.44710632 19.90739166 408.4528064 19.05073547 408.4586792 C17.29514819 408.46807609 15.5395437 408.47464189 13.78393555 408.47851562 C11.16616728 408.48811595 8.54922177 408.51914586 5.93164062 408.55078125 C-5.83943394 408.62427369 -17.01266594 407.44683342 -28.56640625 405.23828125 C-29.341017 405.09318619 -30.11562775 404.94809113 -30.91371155 404.79859924 C-77.47895193 396.01400041 -121.72427638 367.67863097 -150.56640625 330.23828125 C-151.20835937 329.41328125 -151.8503125 328.58828125 -152.51171875 327.73828125 C-176.42687713 295.98050008 -193.53335726 255.83367214 -193.76953125 215.62890625 C-193.77654556 214.82844879 -193.78355988 214.02799133 -193.79078674 213.20327759 C-193.8082106 210.63155437 -193.81463988 208.06006134 -193.81640625 205.48828125 C-193.81708099 204.61012756 -193.81775574 203.73197388 -193.81845093 202.82720947 C-193.80281384 190.03899593 -193.34394181 177.76179541 -190.56640625 165.23828125 C-190.31697266 164.00150635 -190.31697266 164.00150635 -190.0625 162.73974609 C-179.79895032 111.8496456 -148.28490836 64.81839076 -105.33984375 35.6953125 C-74.08956037 15.16450438 -37.90430885 0.39270818 0 0 Z M-78.56640625 58.23828125 C-80.08291252 59.1001069 -81.60362545 59.95458199 -83.12890625 60.80078125 C-88.77900981 64.14993766 -93.55666643 68.31479234 -98.4921875 72.609375 C-101.61266366 75.31533007 -104.88167889 77.76043976 -108.2734375 80.1171875 C-108.70011719 80.48714844 -109.12679687 80.85710937 -109.56640625 81.23828125 C-109.56640625 81.89828125 -109.56640625 82.55828125 -109.56640625 83.23828125 C-110.43072266 83.58826172 -110.43072266 83.58826172 -111.3125 83.9453125 C-116.14024769 86.71478301 -119.21632277 91.87927289 -122.56640625 96.23828125 C-123.00968262 96.81336426 -123.45295898 97.38844727 -123.90966797 97.98095703 C-134.48439808 111.80076275 -143.2272439 125.99991972 -149.56640625 142.23828125 C-149.83582031 142.91665039 -150.10523438 143.59501953 -150.3828125 144.29394531 C-160.97659751 171.50769013 -162.21088309 201.54421017 -158.56640625 230.23828125 C-158.47375488 231.02009766 -158.38110352 231.80191406 -158.28564453 232.60742188 C-155.59483456 254.60680321 -147.6611681 277.23689026 -134.56640625 295.23828125 C-133.42279889 296.90462332 -132.27932498 298.57105903 -131.13842773 300.23925781 C-128.08511463 304.70059476 -124.98085837 309.04568287 -121.56640625 313.23828125 C-120.89222656 314.10066406 -120.21804687 314.96304687 -119.5234375 315.8515625 C-111.30106139 326.20067342 -101.53345039 334.00019097 -91.13476562 342.02539062 C-89.81989496 343.04224577 -88.51254115 344.0688107 -87.20703125 345.09765625 C-82.57645477 348.6909836 -77.76498132 351.54161407 -72.56640625 354.23828125 C-71.42429687 354.84671875 -70.2821875 355.45515625 -69.10546875 356.08203125 C-30.26946764 376.43533092 16.23357177 380.61925309 58.60546875 369.1796875 C62.28680289 368.01821854 65.86162031 366.69314343 69.43359375 365.23828125 C70.24280273 364.91698242 71.05201172 364.59568359 71.88574219 364.26464844 C88.00138937 357.82193276 101.74843476 349.99175741 115.43359375 339.23828125 C116.0673291 338.74666504 116.70106445 338.25504883 117.35400391 337.74853516 C128.23050943 329.28671295 137.77485734 320.83792087 145.43359375 309.23828125 C146.90160379 307.29231445 148.38100355 305.35489283 149.87109375 303.42578125 C153.00316533 299.27873393 155.79948186 295.19059493 158.16796875 290.56640625 C159.30401797 288.47663669 160.533404 286.52317984 161.82421875 284.52734375 C183.24576112 250.46125057 185.72286344 202.43059451 177.23852539 164.13476562 C168.53020406 128.11310506 147.27945125 92.33584069 117.03466797 70.41308594 C115.49189967 69.28106382 113.9795229 68.10797585 112.46875 66.93359375 C100.09413735 57.33288756 87.00664712 49.92733745 72.43359375 44.23828125 C71.41604004 43.83416016 71.41604004 43.83416016 70.37792969 43.421875 C23.69411937 25.24876971 -36.80508931 29.93722349 -78.56640625 58.23828125 Z " fill="#0A0A0A" transform="translate(239.56640625,45.76171875)"/>
<path d="M0 0 C5.92752384 3.53725204 9.18554316 7.35124167 11 14 C11.24291992 17.49511719 11.24291992 17.49511719 11.23046875 21.296875 C11.23001053 21.97171936 11.22955231 22.64656372 11.2290802 23.34185791 C11.22607781 24.75705746 11.21825247 26.1722543 11.20581055 27.58740234 C11.18743561 29.75760521 11.18530198 31.92738331 11.18554688 34.09765625 C11.14776543 44.70446913 11.14776543 44.70446913 10 47 C10.69859131 46.96970703 11.39718262 46.93941406 12.11694336 46.90820312 C37.08025293 45.8421835 37.08025293 45.8421835 48.09741211 46.03710938 C51.66889212 46.1335213 51.66889212 46.1335213 55 45 C54.98952637 44.23445801 54.97905273 43.46891602 54.96826172 42.68017578 C54.92630696 39.16181818 54.90054937 35.64351348 54.875 32.125 C54.85824219 30.92101562 54.84148437 29.71703125 54.82421875 28.4765625 C54.72820402 10.80985292 54.72820402 10.80985292 59.375 5.0625 C60.24125 4.381875 61.1075 3.70125 62 3 C62.60457031 2.47148437 63.20914063 1.94296875 63.83203125 1.3984375 C67.85996284 -1.19975981 72.38849185 -0.57480555 77 0 C81.93683006 1.51902463 84.81929932 4.5190027 87.2734375 8.92578125 C89.0799212 14.08300084 89.10286749 19.40863951 88.87890625 24.80859375 C88.83056641 26.04931641 88.78222656 27.29003906 88.73242188 28.56835938 C88.67634766 29.84517578 88.62027344 31.12199219 88.5625 32.4375 C88.51029297 33.74138672 88.45808594 35.04527344 88.40429688 36.38867188 C88.27519585 39.59272447 88.14025405 42.79641946 88 46 C89.22009766 45.99214478 89.22009766 45.99214478 90.46484375 45.98413086 C99.97712317 45.93129972 109.48780749 45.94155335 119 46 C120.81298584 46.00870117 120.81298584 46.00870117 122.66259766 46.01757812 C125.88055616 46.0454031 129.09542264 46.10914193 132.3125 46.1875 C133.72112305 46.19608032 133.72112305 46.19608032 135.15820312 46.20483398 C143.6380258 46.48111702 151.29991583 49.54159911 157.3125 55.6875 C167.21738628 66.33425023 167.20248745 77.97978747 167.24023438 91.78100586 C167.24996271 93.92926442 167.28107371 96.07657327 167.3125 98.22460938 C167.38029112 107.03943381 166.93922454 114.39521489 162.125 121.9375 C158.13678908 125.80841059 153.47858276 126.81428533 148 127 C142.71003515 125.30721125 138.44782701 122.3604871 135 118 C132.24080315 111.15488448 132.74168091 104.09195703 132.8125 96.8125 C132.8134668 94.90694336 132.8134668 94.90694336 132.81445312 92.96289062 C132.86313191 82.73493772 132.86313191 82.73493772 134 79 C133.37770508 79.03029297 132.75541016 79.06058594 132.11425781 79.09179688 C118.06450008 79.76206055 104.06545287 80.14003216 90 80 C88.64898992 82.70202017 88.92161009 84.76381881 88.97265625 87.78515625 C88.98490234 88.95626953 88.99714844 90.12738281 89.00976562 91.33398438 C89.04453605 93.79238216 89.08350236 96.25072469 89.12695312 98.70898438 C89.28043122 115.239478 89.28043122 115.239478 84.625 120.875 C83.75875 121.57625 82.8925 122.2775 82 123 C81.40703125 123.52980469 80.8140625 124.05960937 80.203125 124.60546875 C75.93657664 127.30610308 70.85718205 126.57296518 66 126 C61.56079087 124.01821021 58.97518748 121.44673795 56.73681641 117.08496094 C53.887408 109.02202263 54.87334973 99.23592396 54.9375 90.8125 C54.94201172 89.66974609 54.94652344 88.52699219 54.95117188 87.34960938 C54.96281732 84.5663489 54.97917003 81.78320428 55 79 C54.27635254 79.03552979 53.55270508 79.07105957 52.80712891 79.10766602 C38.45826385 79.78883341 24.32431557 80.21709871 10 79 C10.23976563 80.3303125 10.23976563 80.3303125 10.484375 81.6875 C11.29905374 87.43069621 11.22403699 93.21024792 11.25 99 C11.270625 100.14984375 11.29125 101.2996875 11.3125 102.484375 C11.34580182 109.71087091 11.26167167 115.35332031 6.24609375 120.9609375 C5.35083984 121.66089844 5.35083984 121.66089844 4.4375 122.375 C3.83808594 122.85710937 3.23867187 123.33921875 2.62109375 123.8359375 C-1.57655098 126.85014986 -6.00167762 126.33740638 -11 126 C-14.125 125 -14.125 125 -16 124 C-16 123.34 -16 122.68 -16 122 C-16.99 121.67 -17.98 121.34 -19 121 C-23.0247895 114.34361737 -23.14951993 107.77066573 -23.14526367 100.23168945 C-23.15030159 98.94014702 -23.15030159 98.94014702 -23.15544128 97.62251282 C-23.16491161 94.78608746 -23.16689263 91.94972142 -23.16796875 89.11328125 C-23.17118478 87.13038611 -23.17454911 85.14749121 -23.17805481 83.16459656 C-23.18403681 79.00954641 -23.18589574 74.85451704 -23.18530273 70.69946289 C-23.18520133 65.39832004 -23.19883496 60.09731178 -23.21607494 54.79620075 C-23.22724432 50.69959411 -23.2292204 46.60301946 -23.22869301 42.50639915 C-23.2298664 40.5533521 -23.23425187 38.60030404 -23.24202538 36.64727211 C-23.33604507 10.57903406 -23.33604507 10.57903406 -18.6875 4.4375 C-13.34295386 -0.40987905 -6.9892786 -1.41120496 0 0 Z " fill="#060606" transform="translate(178,187)"/>
<path d="M0 0 C5.44248153 5.25063154 6.33700201 10.70301845 6.60546875 18.09375 C6.31999585 26.39030616 4.34324788 31.10281074 -1.51953125 36.90625 C-7.5582178 41.79524207 -13.95859345 42.29293959 -21.51953125 41.96875 C-27.99125267 41.15636184 -32.47083695 38.96235469 -36.6484375 33.91015625 C-41.40463594 27.11394981 -43.44272811 21.79112333 -42.37109375 13.4921875 C-41.28557955 7.88666334 -39.01647619 3.04750405 -34.89453125 -0.96875 C-22.91181327 -8.26975201 -11.44478072 -8.87925754 0 0 Z " fill="#0D0D0D" transform="translate(189.89453125,333.96875)"/>
<path d="M0 0 C5.61523878 5.69884035 8.0852524 10.85009361 8.3125 18.8125 C8.23458266 25.67630936 7.24421714 30.80150204 2.9375 36.25 C-3.4394278 42.0692497 -10.38293673 44.58364131 -18.9375 44.25 C-26.11646204 43.29870457 -32.54509515 39.62068675 -37.0625 33.9375 C-40.52846825 28.35753694 -41.78075075 21.85174855 -40.6640625 15.359375 C-38.25781453 6.92188211 -34.37906071 1.79437381 -27.1875 -3 C-18.82746576 -5.95060032 -7.06851135 -5.80410091 0 0 Z " fill="#0B0B0B" transform="translate(188.0625,128.75)"/>
<path d="M0 0 C4.84149292 5.58633798 6.05227099 11.70692765 5.9375 18.9375 C4.84149619 25.30961519 1.88000177 31.74744137 -3.0625 36 C-10.2654294 40.90412214 -17.08687562 41.61031242 -25.6875 40.4375 C-32.66809353 38.96842029 -36.21664265 35.39345328 -40.375 29.8125 C-43.98819107 23.55890007 -43.6401583 17.04174132 -43 10 C-41.09710831 3.02891873 -37.53097752 -1.2748288 -31.3125 -4.875 C-20.43275159 -10.16785058 -9.05379678 -8.01578187 0 0 Z " fill="#0C0C0C" transform="translate(347,335)"/>
<path d="M0 0 C6.04219335 3.66663015 10.20183917 8.6055175 12.4375 15.3125 C13.29949685 23.70333014 13.10082993 30.25007407 8.12109375 37.25390625 C2.98242092 43.53715586 -1.22723474 45.22457625 -9.1796875 46.1484375 C-16.39914652 46.49857293 -22.25207492 45.82189716 -28 41.1875 C-33.85770754 35.30573617 -35.77881037 30.60212056 -36 22.25 C-35.77392718 15.19652816 -34.92292074 11.05569167 -30.25 5.625 C-21.80293306 -1.64340644 -10.71715141 -5.09167347 0 0 Z " fill="#0C0C0C" transform="translate(261.5625,329.6875)"/>
<path d="M0 0 C5.33474286 3.24149138 9.31530275 8.02354873 11.63671875 13.83984375 C13.45784989 21.33551397 13.18787695 29.41788363 9.17578125 36.05859375 C6.86328125 38.74609375 6.86328125 38.74609375 4.17578125 41.05859375 C3.35078125 41.78046875 2.52578125 42.50234375 1.67578125 43.24609375 C-4.82549705 46.61282716 -12.56398191 48.15012751 -19.69921875 45.99609375 C-21.83203125 45.08984375 -21.83203125 45.08984375 -23.82421875 44.05859375 C-24.77941406 43.5790625 -24.77941406 43.5790625 -25.75390625 43.08984375 C-31.19699485 39.81931841 -34.02603675 35.06579469 -35.82421875 29.05859375 C-36.7147257 22.09857888 -36.94920851 14.98666811 -33.234375 8.80859375 C-25.05468232 -1.34238221 -12.40750079 -4.1358336 0 0 Z " fill="#0C0C0C" transform="translate(261.82421875,125.94140625)"/>
<path d="M0 0 C0 3 0 3 -1.49609375 4.71875 C-2.45708984 5.60046875 -2.45708984 5.60046875 -3.4375 6.5 C-5.92139791 8.78819687 -6.90880131 9.72640392 -8 13 C-8.556875 13.268125 -9.11375 13.53625 -9.6875 13.8125 C-13.12757508 15.57902504 -15.33261312 18.21136826 -18 21 C-18.66 20.67 -19.32 20.34 -20 20 C-15.92923408 15.15120374 -11.65339269 10.54602992 -7.1875 6.0625 C-6.70756592 5.5780542 -6.22763184 5.0936084 -5.7331543 4.59448242 C-2.24769605 1.12384802 -2.24769605 1.12384802 0 0 Z " fill="#4B4B4B" transform="translate(116,96)"/>
<path d="M0 0 C0.99 0.33 1.98 0.66 3 1 C3.0292427 5.33331896 3.04688017 9.66661221 3.0625 14 C3.07087891 15.22074219 3.07925781 16.44148438 3.08789062 17.69921875 C3.10464844 23.89960932 2.97272146 29.8726207 2 36 C1.67 36 1.34 36 1 36 C0.0987006 27.91472452 -0.12442142 19.94325897 -0.0625 11.8125 C-0.05798828 10.66974609 -0.05347656 9.52699219 -0.04882812 8.34960938 C-0.03718268 5.5663489 -0.02082997 2.78320428 0 0 Z " fill="#515151" transform="translate(233,266)"/>
<path d="M0 0 C0.33 0 0.66 0 1 0 C1.19718727 4.56213543 1.3810637 9.12471314 1.5625 13.6875 C1.61857422 14.98107422 1.67464844 16.27464844 1.73242188 17.60742188 C1.78076172 18.85458984 1.82910156 20.10175781 1.87890625 21.38671875 C1.9260376 22.53358154 1.97316895 23.68044434 2.02172852 24.86206055 C2.00181135 27.73841192 1.6777202 30.21381694 1 33 C1.66 33.33 2.32 33.66 3 34 C2.34 34.99 1.68 35.98 1 37 C-1.27593303 29.01686088 -1.04675958 21.68289988 -0.625 13.4375 C-0.56828125 12.14263672 -0.5115625 10.84777344 -0.453125 9.51367188 C-0.31267341 6.34180679 -0.16136521 3.1708583 0 0 Z " fill="#353435" transform="translate(156,268)"/>
<path d="M0 0 C0.99 0.66 1.98 1.32 3 2 C0.36 6.29 -2.28 10.58 -5 15 C-7 11 -7 11 -6.125 7.75 C-5.568125 6.38875 -5.568125 6.38875 -5 5 C-4.01 5 -3.02 5 -2 5 C-1.34 3.35 -0.68 1.7 0 0 Z " fill="#262626" transform="translate(425,349)"/>
<path d="M0 0 C0.99 0.33 1.98 0.66 3 1 C2.67 8.26 2.34 15.52 2 23 C1.67 23 1.34 23 1 23 C0.67 15.41 0.34 7.82 0 0 Z " fill="#383838" transform="translate(155,210)"/>
<path d="M0 0 C0.66 0 1.32 0 2 0 C3.0024305 5.34629602 2.84888195 9.62374766 2 15 C1.67 15 1.34 15 1 15 C0.83105557 13.25021843 0.66493691 11.50016388 0.5 9.75 C0.4071875 8.77546875 0.314375 7.8009375 0.21875 6.796875 C0.04199832 4.53697847 0 2.26679807 0 0 Z " fill="#3A3A3A" transform="translate(233,287)"/>
<path d="M0 0 C0.99 0.33 1.98 0.66 3 1 C0.69 3.31 -1.62 5.62 -4 8 C-4.66 7.67 -5.32 7.34 -6 7 C-4.02 4.69 -2.04 2.38 0 0 Z " fill="#454545" transform="translate(102,109)"/>
<path d="M0 0 C2.475 0.99 2.475 0.99 5 2 C2.31158141 4.25245881 0.35358125 5.88213958 -3 7 C-2.38722388 4.03824877 -1.74627478 2.61941217 0 0 Z " fill="#262626" transform="translate(354,420)"/>
<path d="M0 0 C0 0.66 0 1.32 0 2 C-0.66 2 -1.32 2 -2 2 C-2.2475 2.598125 -2.495 3.19625 -2.75 3.8125 C-4.16370012 6.28647521 -5.65055383 7.43370255 -8 9 C-6.68994234 5.06982701 -4.75047804 0 0 0 Z " fill="#6E6E6E" transform="translate(159,128)"/>
<path d="M0 0 C0.66 0.99 1.32 1.98 2 3 C1.34 3 0.68 3 0 3 C-0.268125 3.61875 -0.53625 4.2375 -0.8125 4.875 C-2 7 -2 7 -5 9 C-4.42647107 5.12867972 -2.51295648 2.91827204 0 0 Z " fill="#484848" transform="translate(92,120)"/>
<path d="M0 0 C-0.33 0.99 -0.66 1.98 -1 3 C-2.65 3.33 -4.3 3.66 -6 4 C-6.66 3.01 -7.32 2.02 -8 1 C-2.25 -1.125 -2.25 -1.125 0 0 Z " fill="#2F2F2F" transform="translate(311,411)"/>
</svg>
