<?xml version="1.0" encoding="UTF-8"?>
<svg version="1.1" xmlns="http://www.w3.org/2000/svg" width="512" height="512">
<path d="M0 0 C0.52754883 0.43135254 1.05509766 0.86270508 1.59863281 1.30712891 C12.72739262 10.4498023 23.79718378 19.88412571 33 31 C33.80566406 31.9178125 34.61132812 32.835625 35.44140625 33.78125 C68.8619233 71.98131897 89.55841178 119.77030435 96 170 C96.08732895 170.67268921 96.1746579 171.34537842 96.26463318 172.03845215 C96.93703148 177.59292516 97.17382045 183.06798222 97.203125 188.66015625 C97.21018463 189.5592421 97.21724426 190.45832794 97.22451782 191.38465881 C97.45478217 229.34739782 97.45478217 229.34739782 94 247 C93.70198486 248.5466333 93.70198486 248.5466333 93.39794922 250.12451172 C84.24134652 296.16816261 63.2825958 339.12745952 31.25 373.5625 C29.34868921 375.62225336 27.54364491 377.7226261 25.75 379.875 C22.41840098 383.70515185 18.76711458 387.16182072 15.0625 390.625 C14.48918945 391.16366699 13.91587891 391.70233398 13.32519531 392.25732422 C12.16656751 393.32654971 10.99282839 394.37961297 9.80517578 395.41650391 C8.59251816 396.48024441 7.4132197 397.58313878 6.26904297 398.72021484 C0.13669543 404.24895275 -6.07972269 403.70117826 -14 403.375 C-15.25167969 403.34792969 -16.50335938 403.32085937 -17.79296875 403.29296875 C-20.86378464 403.22264472 -23.93097285 403.12426501 -27 403 C-23.70407297 399.57271356 -20.35146715 396.65779082 -16.5 393.875 C1.22747472 380.77005622 17.75995873 365.52120325 30.78515625 347.66357422 C32.00570603 345.99218631 33.25102809 344.34162497 34.5 342.69140625 C58.91424096 309.988321 74.04206931 270.4094094 79 230 C79.0942627 229.28682617 79.18852539 228.57365234 79.28564453 227.83886719 C80.26489716 219.5458762 80.24362986 211.21383815 80.25 202.875 C80.25067474 202.07898376 80.25134949 201.28296753 80.25204468 200.46282959 C80.23371935 186.79213336 79.45520934 173.47561271 77 160 C76.83902832 159.10812988 76.67805664 158.21625977 76.51220703 157.29736328 C66.07916015 101.8849558 35.22483581 48.36839374 -10 14 C-10.81041748 13.37496582 -10.81041748 13.37496582 -11.63720703 12.73730469 C-26.36813242 1.41344783 -42.11545626 -8.23580633 -59 -16 C-59.71704102 -16.3309668 -60.43408203 -16.66193359 -61.17285156 -17.00292969 C-80.32648551 -25.72430114 -100.27431116 -31.48071861 -121 -35 C-122.1859375 -35.21398437 -123.371875 -35.42796875 -124.59375 -35.6484375 C-172.0700861 -43.16189436 -224.72048375 -34.7466176 -267.14404297 -11.98681641 C-269.00134601 -10.99928432 -270.87397184 -10.04910102 -272.75390625 -9.10546875 C-292.93188093 1.14111797 -310.74525956 15.3670539 -327 31 C-327.73694092 31.70406982 -327.73694092 31.70406982 -328.48876953 32.42236328 C-343.8654405 47.17879878 -356.59886049 64.43447919 -367 83 C-367.433125 83.76521973 -367.86625 84.53043945 -368.3125 85.31884766 C-382.23511113 110.13333105 -391.30997357 136.97244712 -396 165 C-396.12004395 165.71188477 -396.24008789 166.42376953 -396.36376953 167.15722656 C-406.00119397 228.02668223 -388.69213116 292.35594127 -353 342 C-352.56977539 342.59989746 -352.13955078 343.19979492 -351.69628906 343.81787109 C-345.42561769 352.46513181 -338.39566661 360.31645137 -331 368 C-330.17193848 368.86890869 -330.17193848 368.86890869 -329.32714844 369.75537109 C-321.11806425 378.33716927 -312.5275045 385.91940579 -303 393 C-302.11924805 393.65669678 -302.11924805 393.65669678 -301.22070312 394.32666016 C-300.63740234 394.76155762 -300.05410156 395.19645508 -299.453125 395.64453125 C-298.89254395 396.06307373 -298.33196289 396.48161621 -297.75439453 396.9128418 C-296.21874908 398.05525709 -294.67599935 399.18810491 -293.1328125 400.3203125 C-292.42898438 400.87460937 -291.72515625 401.42890625 -291 402 C-291 402.33 -291 402.66 -291 403 C-317.89972886 404.66751525 -317.89972886 404.66751525 -324.1875 399.4375 C-325.82888346 397.65863314 -327.42860523 395.84098491 -329 394 C-330.96285259 392.13416257 -332.97060875 390.32424336 -334.98095703 388.50976562 C-346.21798477 378.30405699 -355.84420647 367.06855226 -365 355 C-365.63639404 354.1649292 -365.63639404 354.1649292 -366.28564453 353.31298828 C-389.68974945 322.35445169 -405.13464121 285.12193015 -412 247 C-412.24121582 245.73446289 -412.24121582 245.73446289 -412.48730469 244.44335938 C-417.57127382 216.70690098 -417.61510297 184.6461574 -412 157 C-411.66756516 155.17976116 -411.33555109 153.35944544 -411.00390625 151.5390625 C-406.70575719 129.10707451 -399.10703431 107.45877982 -389 87 C-388.67177246 86.3311377 -388.34354492 85.66227539 -388.00537109 84.97314453 C-377.84795589 64.51917146 -364.49172991 45.42686908 -348.75 28.90234375 C-346.34373711 26.36277936 -344.03573203 23.77234198 -341.75 21.125 C-338.80830284 17.80508463 -335.74382451 14.83963801 -332.3515625 11.984375 C-330.57141497 10.48219071 -328.8211947 8.9444478 -327.0859375 7.390625 C-312.19113345 -5.87835355 -295.76017177 -16.9440525 -278 -26 C-277.18450684 -26.41733398 -276.36901367 -26.83466797 -275.52880859 -27.26464844 C-187.86784533 -71.6410165 -76.801275 -62.88227786 0 0 Z " fill="#000000" transform="translate(415,82)"/>
<path d="M0 0 C15.18 0 30.36 0 46 0 C46 23.76 46 47.52 46 72 C30.82 72 15.64 72 0 72 C0 48.24 0 24.48 0 0 Z M14 16 C14 22.27 14 28.54 14 35 C15.7325 35.0825 17.465 35.165 19.25 35.25 C22.7365232 35.58204983 24.66577188 35.79790858 27.6875 37.625 C29.4957479 40.89706762 29.33470491 43.31824596 29 47 C28.505 48.485 28.505 48.485 28 50 C25.18772378 50.93742541 23.41253156 51.13470844 20.5 51.125 C19.7265625 51.12757813 18.953125 51.13015625 18.15625 51.1328125 C16 51 16 51 13 50 C13 51.32 13 52.64 13 54 C17.94837047 55.64945682 21.8126825 55.3957725 26.75 53.75 C30.79174853 51.57367387 32.30904078 49.96657625 33.8125 45.6875 C34.07317713 41.95112783 33.44587231 39.45752073 32 36 C28.48219872 32.65379878 25.85507402 31.77234681 21.125 31.75 C19.083125 31.87375 19.083125 31.87375 17 32 C17 27.71 17 23.42 17 19 C21.95 19 26.9 19 32 19 C32 18.01 32 17.02 32 16 C26.06 16 20.12 16 14 16 Z " fill="#000000" transform="translate(234,344)"/>
<path d="M0 0 C15.18 0 30.36 0 46 0 C46 23.76 46 47.52 46 72 C30.82 72 15.64 72 0 72 C0 48.24 0 24.48 0 0 Z M16 20 C13.23211954 25.25963033 12.47996271 29.53575342 12.5625 35.4375 C12.56934814 36.18596191 12.57619629 36.93442383 12.58325195 37.70556641 C12.74999975 43.42495336 13.5260599 47.30548636 17 52 C19.3356432 54.14100627 20.7729225 54.9002376 23.921875 55.15625 C28.01309985 54.97168347 29.71569188 54.24722445 32.875 51.5 C37.51371059 44.97144435 37.71944692 36.35088648 36.6875 28.67578125 C35.78868433 23.8205716 34.58657213 20.58657213 31 17 C25.36778063 14.18389031 20.43097986 16.07254058 16 20 Z " fill="#000000" transform="translate(283,344)"/>
<path d="M0 0 C15.18 0 30.36 0 46 0 C46 23.76 46 47.52 46 72 C30.82 72 15.64 72 0 72 C0 48.24 0 24.48 0 0 Z M15 19 C10.16503406 27.11583568 9.79826207 36.33952026 11.4609375 45.5546875 C12.59830081 49.10058487 14.03459586 51.03075187 16.8125 53.5 C20.37847929 55.1781079 22.12634433 55.72631044 26 55 C30.86984913 52.03989563 32.99608643 49.13374541 34.53125 43.66015625 C35.97839838 35.44758921 35.92711164 27.44797036 32 20 C29.15514365 16.8390485 27.7310828 16.09138535 23.5 15.5625 C19.71943286 16.03507089 17.9152475 16.57062708 15 19 Z " fill="#000000" transform="translate(183,344)"/>
<path d="M0 0 C5.48558395 3.90320397 10.45174771 8.17899657 15.36865234 12.76342773 C18.60832309 15.76808337 21.92189993 18.61353705 25.375 21.375 C31.10522487 25.98571639 36.43085078 30.97756638 41.79296875 36.00390625 C46.4639332 40.38116714 51.29747541 44.5514289 56.171875 48.69921875 C57.36486315 49.71581756 58.55756205 50.73275588 59.75 51.75 C60.35368408 52.26481934 60.95736816 52.77963867 61.5793457 53.31005859 C66.03960984 57.13212252 70.37267114 61.07221266 74.67529297 65.06982422 C77.81503117 67.96748224 81.04166489 70.70346573 84.375 73.375 C90.09306155 77.97592941 95.40821801 82.95578678 100.7578125 87.97265625 C103.91777707 90.93432345 107.11949543 93.83776503 110.421875 96.640625 C111.77297783 97.80444625 113.05155615 99.05155615 114.3125 100.3125 C117.22369976 102.14046264 119.00987893 102.40342521 122.375 102.875 C128.04483195 103.73963024 131.32575104 105.61070259 135 110 C137.834757 114.43701096 137.62940102 119.90105503 137 125 C135.67026682 129.20418635 133.39341955 131.68687016 129.9375 134.4375 C124.65227321 137.06306428 118.46004027 137.07688178 112.87890625 135.33984375 C108.29270588 133.06153776 105.7215193 129.69686191 104 125 C103.938125 123.906875 103.87625 122.81375 103.8125 121.6875 C102.5006507 115.73372239 98.15458736 112.28314951 94 108 C92.82326342 106.67554543 91.65567986 105.34286744 90.5 104 C87.86310364 100.97245233 85.18983431 97.98062721 82.5 95 C79.23609152 91.38323655 76.01209051 87.73610392 72.8125 84.0625 C70.72788836 81.69035571 68.61571356 79.34443935 66.5 77 C63.23609152 73.38323655 60.01209051 69.73610392 56.8125 66.0625 C54.72788836 63.69035571 52.61571356 61.34443935 50.5 59 C47.23609152 55.38323655 44.01209051 51.73610392 40.8125 48.0625 C38.72788836 45.69035571 36.61571356 43.34443935 34.5 41 C31.23609152 37.38323655 28.01209051 33.73610392 24.8125 30.0625 C22.72788836 27.69035571 20.61571356 25.34443935 18.5 23 C15.2029862 19.34534403 11.9332356 15.67043774 8.70703125 11.953125 C7.48707475 10.55729376 6.2537434 9.17310663 5.01171875 7.796875 C4.36847656 7.08015625 3.72523438 6.3634375 3.0625 5.625 C2.18271484 4.65433594 2.18271484 4.65433594 1.28515625 3.6640625 C0 2 0 2 0 0 Z " fill="#000000" transform="translate(143,204)"/>
<path d="M0 0 C3.66415876 2.06312314 6.70548128 4.35872176 9.8125 7.1875 C10.60269531 7.90292969 11.39289063 8.61835938 12.20703125 9.35546875 C12.79871094 9.89816406 13.39039063 10.44085938 14 11 C12.63733356 15.03805866 10.8590849 17.54368118 7.9375 20.625 C3.9058217 24.97818374 0.12167476 29.46258906 -3.609375 34.07421875 C-6.24025479 37.29403731 -8.92747919 40.46108756 -11.625 43.625 C-15.89566959 48.64145985 -20.02234192 53.74623318 -24 59 C-28.32046898 57.58319756 -31.00461199 55.46236215 -34.3125 52.375 C-35.19550781 51.55773437 -36.07851562 50.74046875 -36.98828125 49.8984375 C-37.65214844 49.27195312 -38.31601563 48.64546875 -39 48 C-36.64217968 43.73043347 -33.70048147 40.15031755 -30.5 36.5 C-29.42021276 35.25421832 -28.34079388 34.00811729 -27.26171875 32.76171875 C-26.71692871 32.13442871 -26.17213867 31.50713867 -25.61083984 30.86083984 C-23.15850624 28.02790763 -20.73241199 25.17314014 -18.3125 22.3125 C-17.63852173 21.51585937 -17.63852173 21.51585937 -16.95092773 20.703125 C-11.19814023 13.88562687 -5.56481015 6.97157424 0 0 Z " fill="#000000" transform="translate(146,393)"/>
<path d="M0 0 C3.52238047 1.56367357 6.27123994 3.69495889 9.25 6.125 C10.14203125 6.84945312 11.0340625 7.57390625 11.953125 8.3203125 C12.62859375 8.87460938 13.3040625 9.42890625 14 10 C13.40791545 13.83529398 11.66121701 15.94219677 9.1875 18.875 C8.37667969 19.84179688 7.56585938 20.80859375 6.73046875 21.8046875 C5.821582 22.87087518 4.91137191 23.93593584 4 25 C3.51998535 25.56106445 3.0399707 26.12212891 2.54541016 26.70019531 C0.51793618 29.0674583 -1.51181459 31.43273904 -3.54492188 33.79516602 C-10.60391862 42.006997 -17.40480327 50.41139975 -24 59 C-27.75730247 57.3718356 -30.616823 54.98598083 -33.75 52.375 C-34.73484375 51.55773437 -35.7196875 50.74046875 -36.734375 49.8984375 C-37.48203125 49.27195313 -38.2296875 48.64546875 -39 48 C-37.71076019 45.21176763 -36.31380469 43.01003398 -34.27734375 40.71484375 C-33.74359131 40.10761475 -33.20983887 39.50038574 -32.65991211 38.87475586 C-32.09151611 38.23546143 -31.52312012 37.59616699 -30.9375 36.9375 C-29.74880878 35.58437887 -28.56131318 34.2302065 -27.375 32.875 C-26.79492188 32.21242187 -26.21484375 31.54984375 -25.6171875 30.8671875 C-22.77654321 27.58740979 -20.06127711 24.20825243 -17.33203125 20.8359375 C-13.97788374 16.75702445 -10.52907773 12.76112458 -7.07202148 8.76928711 C-4.60749146 5.91521158 -2.2102786 3.05980745 0 0 Z " fill="#000000" transform="translate(390,103)"/>
<path d="M0 0 C4.15391102 1.55892698 6.46912659 4.59723569 9.1875 7.9375 C9.67162354 8.52088135 10.15574707 9.1042627 10.65454102 9.70532227 C12.11080672 11.46398978 13.55709525 13.23036154 15 15 C15.75796875 15.928125 16.5159375 16.85625 17.296875 17.8125 C18.73397617 19.57478464 20.17016195 21.33781612 21.60546875 23.1015625 C24.93475986 27.13147115 28.33866401 31.09539997 31.75170898 35.05444336 C32.70526061 36.16069156 33.65721641 37.26831771 34.60742188 38.37744141 C35.55651701 39.483277 36.5111928 40.58434157 37.47070312 41.68115234 C41 45.777569 41 45.777569 41 48 C39.28358022 49.56197114 37.50061361 51.05139042 35.6875 52.5 C34.70136719 53.2940625 33.71523437 54.088125 32.69921875 54.90625 C30 57 30 57 27 59 C21.25745139 52.80188386 15.72357922 46.52513963 10.4140625 39.94921875 C7.66138186 36.58631603 4.83820144 33.29068776 2 30 C-3.10228795 24.08040262 -8.08745098 18.07865914 -13 12 C-10.371485 8.50938031 -7.74312262 5.80734196 -4.25 3.1875 C-3.45078125 2.58292969 -2.6515625 1.97835937 -1.828125 1.35546875 C-0.92320313 0.68451172 -0.92320313 0.68451172 0 0 Z " fill="#000000" transform="translate(120,103)"/>
<path d="M0 0 C1.83984375 1.9140625 1.83984375 1.9140625 3.9375 4.625 C5.12666016 6.12933594 5.12666016 6.12933594 6.33984375 7.6640625 C6.76765137 8.20579102 7.19545898 8.74751953 7.63623047 9.30566406 C10.01857708 12.2654717 12.51381867 15.12741266 15 18 C22.88768796 27.15564095 30.47366169 36.54593471 38 46 C36.48410872 49.80257473 34.2397955 51.73055864 31.0625 54.25 C30.18722656 54.95640625 29.31195313 55.6628125 28.41015625 56.390625 C26 58 26 58 23 58 C21.16015625 56.0859375 21.16015625 56.0859375 19.0625 53.375 C18.26972656 52.37210937 17.47695313 51.36921875 16.66015625 50.3359375 C16.23234863 49.79420898 15.80454102 49.25248047 15.36376953 48.69433594 C12.98142292 45.7345283 10.48618133 42.87258734 8 40 C0.11231204 30.84435905 -7.47366169 21.45406529 -15 12 C-13.48410872 8.19742527 -11.2397955 6.26944136 -8.0625 3.75 C-7.18722656 3.04359375 -6.31195313 2.3371875 -5.41015625 1.609375 C-3 0 -3 0 0 0 Z " fill="#000000" transform="translate(366,394)"/>
<path d="M0 0 C8.09966057 3.93327877 15.93978862 8.16503723 23.6875 12.75 C25.77599236 13.98055244 27.86453439 15.21102058 29.953125 16.44140625 C30.97083984 17.04227051 31.98855469 17.64313477 33.03710938 18.26220703 C35.77945811 19.87064789 38.53393212 21.45461597 41.296875 23.02734375 C42.08747314 23.48077148 42.87807129 23.93419922 43.69262695 24.40136719 C45.15341294 25.23828079 46.61793278 26.06872168 48.08666992 26.89160156 C52.88751748 29.66255245 52.88751748 29.66255245 54 33 C52.7689092 35.50001654 51.50257845 37.81434593 50.0625 40.1875 C49.67642578 40.84169922 49.29035156 41.49589844 48.89257812 42.16992188 C47.93746912 43.78535316 46.96989934 45.39340525 46 47 C42.36367377 45.62551133 39.02935879 43.99565142 35.640625 42.09375 C34.61501465 41.51931152 33.5894043 40.94487305 32.53271484 40.35302734 C31.44941895 39.74152832 30.36612305 39.1300293 29.25 38.5 C28.13705566 37.87432129 27.02411133 37.24864258 25.87744141 36.60400391 C17.44696691 31.85069007 9.08592203 26.98983063 0.76855469 22.04199219 C-2.13671843 20.33027136 -5.06812302 18.6656679 -8 17 C-7.14595717 10.51649176 -3.31785974 5.48954975 0 0 Z " fill="#000000" transform="translate(397,349)"/>
<path d="M0 0 C1.50994018 2.33564361 2.86915145 4.62367437 4.1875 7.0625 C4.55552734 7.72572266 4.92355469 8.38894531 5.30273438 9.07226562 C6.21012062 10.71027457 7.10615573 12.35456221 8 14 C4.52018729 16.9118185 1.00341505 19.27402563 -2.9453125 21.50390625 C-3.50890976 21.82403183 -4.07250702 22.14415741 -4.65318298 22.47398376 C-6.47481471 23.50762634 -8.2997779 24.53521289 -10.125 25.5625 C-12.6479985 26.98936294 -15.16965866 28.41858402 -17.69140625 29.84765625 C-18.31577072 30.20086945 -18.94013519 30.55408264 -19.5834198 30.91799927 C-23.3966885 33.07843392 -27.18892439 35.27073217 -30.96484375 37.49609375 C-31.8367334 38.00906006 -32.70862305 38.52202637 -33.60693359 39.05053711 C-35.20789194 39.99554503 -36.80602783 40.94535594 -38.40087891 41.90063477 C-43.6691369 45 -43.6691369 45 -47 45 C-48.33858524 42.71125827 -49.67101014 40.41930344 -51 38.125 C-51.3815625 37.47402344 -51.763125 36.82304687 -52.15625 36.15234375 C-55 31.2265625 -55 31.2265625 -55 29 C-53.9790625 28.44054687 -52.958125 27.88109375 -51.90625 27.3046875 C-40.70272014 21.13698187 -29.63020912 14.7582808 -18.59375 8.296875 C-17.66304687 7.75353516 -16.73234375 7.21019531 -15.7734375 6.65039062 C-13.88832246 5.52861442 -12.01878806 4.38032276 -10.1640625 3.20898438 C-9.27460937 2.65017578 -8.38515625 2.09136719 -7.46875 1.515625 C-6.67919922 1.00805664 -5.88964844 0.50048828 -5.07617188 -0.02246094 C-3 -1 -3 -1 0 0 Z " fill="#000000" transform="translate(115,350)"/>
<path d="M0 0 C4.02939664 1.34313221 4.63016687 3.19038843 6.75 6.8125 C7.38421875 7.87082031 8.0184375 8.92914063 8.671875 10.01953125 C10 13 10 13 9.89355469 14.99243164 C8.59666789 17.90617485 6.81811066 18.60379319 4.03125 20.1015625 C2.99291016 20.6694751 1.95457031 21.2373877 0.88476562 21.82250977 C-0.23220703 22.41733154 -1.34917969 23.01215332 -2.5 23.625 C-4.79248222 24.87480729 -7.08414651 26.12611605 -9.375 27.37890625 C-10.50421875 27.99266113 -11.6334375 28.60641602 -12.796875 29.23876953 C-17.08285056 31.59540274 -21.29861318 34.0590102 -25.5 36.5625 C-26.83444398 37.35318776 -28.16906862 38.14357073 -29.50390625 38.93359375 C-30.40133545 39.46509033 -30.40133545 39.46509033 -31.31689453 40.00732422 C-33.67898474 41.4004572 -36.0521167 42.77215228 -38.4375 44.125 C-39.09621094 44.49882812 -39.75492187 44.87265625 -40.43359375 45.2578125 C-42 46 -42 46 -44 46 C-45.36680153 43.73595458 -46.71844445 41.46498979 -48.0625 39.1875 C-48.45244141 38.54490234 -48.84238281 37.90230469 -49.24414062 37.24023438 C-50.24130759 35.5371085 -51.12812687 33.77054142 -52 32 C-50.74327861 28.22983584 -49.70437669 27.99288597 -46.27734375 26.13671875 C-45.27453369 25.58588623 -44.27172363 25.03505371 -43.23852539 24.4675293 C-42.14918701 23.88011963 -41.05984863 23.29270996 -39.9375 22.6875 C-37.66297647 21.43947725 -35.38956883 20.18941899 -33.1171875 18.9375 C-32.53334793 18.61686081 -31.94950836 18.29622162 -31.34797668 17.96586609 C-25.02190644 14.48265831 -18.79001867 10.84388941 -12.5625 7.1875 C-10.56388919 6.01417452 -8.56519862 4.8409849 -6.56640625 3.66796875 C-5.73052979 3.17578857 -4.89465332 2.6836084 -4.03344727 2.17651367 C-2.71109072 1.41142348 -1.3664523 0.68322615 0 0 Z " fill="#000000" transform="translate(441,160)"/>
<path d="M0 0 C7.35332315 3.54544201 14.41123517 7.47345564 21.4375 11.625 C23.54139102 12.86244794 25.64556174 14.09942045 27.75 15.3359375 C28.79285156 15.94920898 29.83570313 16.56248047 30.91015625 17.19433594 C33.84689773 18.91052904 36.79478538 20.60491898 39.75 22.2890625 C40.62857666 22.79099121 41.50715332 23.29291992 42.41235352 23.81005859 C44.06415648 24.75198394 45.71821037 25.68997561 47.37475586 26.62353516 C48.10573486 27.0416748 48.83671387 27.45981445 49.58984375 27.890625 C50.22784912 28.25188477 50.86585449 28.61314453 51.52319336 28.98535156 C53 30 53 30 54 32 C52.80385323 34.43659526 51.56187014 36.73002411 50.1875 39.0625 C49.81818359 39.71283203 49.44886719 40.36316406 49.06835938 41.03320312 C46.26694139 45.8665293 46.26694139 45.8665293 44 47 C41.58349609 45.86694336 41.58349609 45.86694336 38.5234375 44.08984375 C37.3880957 43.43588623 36.25275391 42.78192871 35.08300781 42.1081543 C33.8467606 41.38502088 32.61076334 40.66146001 31.375 39.9375 C30.11848195 39.20754172 28.86164302 38.47813552 27.60449219 37.74926758 C25.67029496 36.62695047 23.73686626 35.50339932 21.80554199 34.37614441 C18.06639417 32.19389393 14.3154046 30.03530872 10.54592896 27.90586853 C7.77627892 26.34071069 5.0140196 24.76257385 2.25 23.1875 C1.21536621 22.60798584 0.18073242 22.02847168 -0.88525391 21.43139648 C-1.82546387 20.89071533 -2.76567383 20.35003418 -3.734375 19.79296875 C-4.56163086 19.3239917 -5.38888672 18.85501465 -6.24121094 18.37182617 C-6.82161133 17.91912354 -7.40201172 17.4664209 -8 17 C-8 12.90540797 -6.03072724 10.23249165 -4 6.8125 C-3.6184375 6.15830078 -3.236875 5.50410156 -2.84375 4.83007812 C-1.90161068 3.21666455 -0.95155734 1.60787702 0 0 Z " fill="#000000" transform="translate(69,159)"/>
<path d="M0 0 C5.61 1.98 11.22 3.96 17 6 C14.91397599 13.15626076 12.58841951 20.17689133 10.05859375 27.1875 C9.69024918 28.21182129 9.3219046 29.23614258 8.94239807 30.29150391 C8.16981697 32.43655115 7.39578601 34.58107671 6.62036133 36.72509766 C5.43157695 40.01639871 4.25178553 43.31083795 3.07226562 46.60546875 C2.31825432 48.69550955 1.56371599 50.78536032 0.80859375 52.875 C0.45647324 53.86137451 0.10435272 54.84774902 -0.25843811 55.86401367 C-0.58895676 56.77256104 -0.9194754 57.6811084 -1.26000977 58.6171875 C-1.5485231 59.41753418 -1.83703644 60.21788086 -2.1342926 61.04248047 C-3 63 -3 63 -5 65 C-10.28 63.02 -15.56 61.04 -21 59 C-20.28719646 54.72317878 -19.60774051 51.51967702 -18.15820312 47.5612793 C-17.78111206 46.52388107 -17.404021 45.48648285 -17.01550293 44.41764832 C-16.60819946 43.31431656 -16.200896 42.2109848 -15.78125 41.07421875 C-15.36331177 39.93088577 -14.94537354 38.7875528 -14.51477051 37.60957336 C-13.63295136 35.20063204 -12.74857641 32.79262496 -11.86181641 30.38549805 C-10.49932797 26.68567512 -9.14552909 22.98275928 -7.79296875 19.27929688 C-6.93540479 16.93991753 -6.07734904 14.6007184 -5.21875 12.26171875 C-4.81144653 11.14826584 -4.40414307 10.03481293 -3.98449707 8.88761902 C-3.60740601 7.8659816 -3.23031494 6.84434418 -2.84179688 5.79174805 C-2.50950073 4.88829147 -2.17720459 3.9848349 -1.83483887 3.05400085 C-1 1 -1 1 0 0 Z " fill="#000000" transform="translate(323,67)"/>
<path d="M0 0 C0.99978638 2.18807983 0.99978638 2.18807983 2.06298828 5.11474609 C2.66338425 6.75182022 2.66338425 6.75182022 3.27590942 8.42196655 C3.70306244 9.61045197 4.13021545 10.79893738 4.5703125 12.0234375 C5.0114035 13.23569 5.45249451 14.4479425 5.9069519 15.69692993 C6.84112991 18.26605417 7.77029253 20.83691988 8.69580078 23.40917969 C9.88247389 26.70652132 11.07974718 29.99988772 12.28059578 33.29208946 C13.42387436 36.42988663 14.5593721 39.57047606 15.6953125 42.7109375 C16.12651398 43.89537445 16.55771545 45.0798114 17.00198364 46.30014038 C17.3959433 47.39782745 17.78990295 48.49551453 18.19580078 49.62646484 C18.71969894 51.07755142 18.71969894 51.07755142 19.25418091 52.55795288 C20 55 20 55 20 58 C17.75438718 58.86762314 15.50473745 59.7192103 13.25 60.5625 C12.29867187 60.9327832 12.29867187 60.9327832 11.328125 61.31054688 C5.3337397 63.52722061 5.3337397 63.52722061 2 62 C0.75970459 59.80519104 0.75970459 59.80519104 -0.29003906 56.86938477 C-0.89020844 55.2274691 -0.89020844 55.2274691 -1.50250244 53.55238342 C-1.91933289 52.36076096 -2.33616333 51.16913849 -2.765625 49.94140625 C-3.20388611 48.72678207 -3.64214722 47.5121579 -4.09368896 46.26072693 C-5.0210472 43.68912637 -5.93797885 41.11414022 -6.84667969 38.53588867 C-8.0126505 35.22769077 -9.19509858 31.92571787 -10.38422012 28.62577915 C-12.34731138 23.17602148 -14.29940468 17.72223036 -16.22753906 12.26000977 C-16.57077209 11.2903981 -16.91400513 10.32078644 -17.26763916 9.3217926 C-18 7 -18 7 -18 5 C-15.37831689 3.96983978 -12.75326119 2.95061606 -10.125 1.9375 C-9.37863281 1.64294922 -8.63226563 1.34839844 -7.86328125 1.04492188 C-2.2265625 -1.11328125 -2.2265625 -1.11328125 0 0 Z " fill="#000000" transform="translate(190,68)"/>
<path d="M0 0 C0.99 5.94 1.98 11.88 3 18 C-4.3447231 19.30838863 -11.69007176 20.61313025 -19.03657055 21.91151428 C-22.44804607 22.51459075 -25.85922643 23.11924271 -29.26977539 23.72753906 C-33.19333976 24.42726338 -37.11811259 25.12005666 -41.04296875 25.8125 C-42.87446724 26.14060669 -42.87446724 26.14060669 -44.7429657 26.4753418 C-45.8837709 26.67554932 -47.02457611 26.87575684 -48.19995117 27.08203125 C-49.20144699 27.25968018 -50.20294281 27.4373291 -51.23478699 27.62036133 C-53.86524821 27.9814998 -56.3491955 28.07115085 -59 28 C-59.34144359 26.31412229 -59.67271803 24.62618407 -60 22.9375 C-60.185625 21.99777344 -60.37125 21.05804688 -60.5625 20.08984375 C-61.04362721 16.69188281 -61.0283443 13.42788933 -61 10 C-30.50543649 4.22348403 -30.50543649 4.22348403 -15.875 1.625 C-14.95388428 1.45774414 -14.03276855 1.29048828 -13.08374023 1.11816406 C-12.22852783 0.96831055 -11.37331543 0.81845703 -10.4921875 0.6640625 C-9.76370605 0.53467285 -9.03522461 0.4052832 -8.28466797 0.27197266 C-5.54099637 -0.05464095 -2.76304366 0 0 0 Z " fill="#000000" transform="translate(472,231)"/>
<path d="M0 0 C0.50509208 2.24886238 1.00389179 4.49913869 1.5 6.75 C1.7784375 8.00296875 2.056875 9.2559375 2.34375 10.546875 C3 14 3 14 3 18 C-10.87509361 20.856085 -24.78025135 23.40376331 -38.75 25.75 C-40.63416069 26.068738 -42.51827548 26.38774739 -44.40234375 26.70703125 C-48.93437638 27.47446345 -53.46700195 28.23829191 -58 29 C-58.53321262 26.77376199 -59.05110119 24.54384996 -59.5625 22.3125 C-59.85253906 21.07113281 -60.14257812 19.82976562 -60.44140625 18.55078125 C-60.97263439 15.17395343 -60.76432583 13.2551001 -60 10 C-52.62046506 8.69315319 -45.24044808 7.38905976 -37.85980511 6.08848572 C-34.432744 5.4844996 -31.00585613 4.87956406 -27.5793457 4.27246094 C-23.64063162 3.57464931 -19.70120066 2.88096385 -15.76171875 2.1875 C-14.53039719 1.96876221 -13.29907562 1.75002441 -12.03044128 1.5246582 C-10.88948502 1.32445068 -9.74852875 1.12424316 -8.57299805 0.91796875 C-7.567061 0.74031982 -6.56112396 0.5626709 -5.52470398 0.37963867 C-3 0 -3 0 0 0 Z " fill="#000000" transform="translate(98,296)"/>
<path d="M0 0 C11.45077287 1.50294507 22.80526354 3.48505376 34.17236328 5.51391602 C37.28477237 6.06869812 40.3981945 6.61753049 43.51171875 7.16601562 C45.49225054 7.51787453 47.47272165 7.87007518 49.453125 8.22265625 C50.38320374 8.38621109 51.31328247 8.54976593 52.27154541 8.71827698 C53.1271405 8.87191208 53.9827356 9.02554718 54.86425781 9.18383789 C55.61700989 9.31770401 56.36976196 9.45157013 57.14532471 9.5894928 C59 10 59 10 61 11 C60.8831456 12.50065654 60.75597952 14.0005103 60.625 15.5 C60.55539063 16.3353125 60.48578125 17.170625 60.4140625 18.03125 C59.89102448 21.78133394 58.93702704 25.33079938 58 29 C37.58822326 25.69086215 17.23730833 22.27104666 -3 18 C-2.37876591 11.86709012 -1.42760339 5.99593423 0 0 Z " fill="#000000" transform="translate(40,230)"/>
<path d="M0 0 C12.96377799 0.38714769 25.60775693 3.16181219 38.3125 5.5625 C40.61381537 5.99216315 42.91524685 6.42120496 45.21679688 6.84960938 C50.81256311 7.89257564 56.40668778 8.94395567 62 10 C61.01 15.94 60.02 21.88 59 28 C51.55662921 27.34185924 44.26139109 26.29025757 36.90234375 25.00390625 C35.78686661 24.81030014 34.67138947 24.61669403 33.52210999 24.41722107 C31.18472201 24.00986843 28.84768405 23.60050269 26.51098633 23.18920898 C22.91834005 22.55913978 19.3235396 21.94251063 15.72851562 21.32617188 C13.45298128 20.92790361 11.17758531 20.52884374 8.90234375 20.12890625 C7.82331284 19.94550186 6.74428192 19.76209747 5.6325531 19.57313538 C4.14949425 19.30792336 4.14949425 19.30792336 2.63647461 19.03735352 C1.76284775 18.88492691 0.88922089 18.73250031 -0.01087952 18.57545471 C-0.99549416 18.29060463 -0.99549416 18.29060463 -2 18 C-3.64177401 14.71645198 -2.26642648 11.34371004 -1.5625 7.875 C-1.34110352 6.74384766 -1.34110352 6.74384766 -1.11523438 5.58984375 C-0.74942352 3.72538843 -0.37547644 1.86253286 0 0 Z " fill="#000000" transform="translate(413,297)"/>
<path d="M0 0 C5.94 0 11.88 0 18 0 C18 20.46 18 40.92 18 62 C12.06 62 6.12 62 0 62 C0 41.54 0 21.08 0 0 Z " fill="#000000" transform="translate(247,57)"/>
<path d="M0 0 C1.87109375 0.390625 1.87109375 0.390625 3.80859375 2.140625 C6.04741649 6.8816614 6.08531324 11.52836944 6.12109375 16.703125 C6.14171875 17.43724609 6.16234375 18.17136719 6.18359375 18.92773438 C6.22065908 24.14931299 5.33637341 27.76523379 2.87109375 32.390625 C-0.17874621 33.91554498 -2.77124315 33.62625048 -6.12890625 33.390625 C-10.14010386 30.32994815 -10.45919135 26.13882836 -11.12890625 21.390625 C-11.70348473 14.46050494 -10.87932782 8.28045071 -8.00390625 1.890625 C-5.38470696 -0.20473443 -3.28814508 -0.16893222 0 0 Z " fill="#000000" transform="translate(310.12890625,362.609375)"/>
<path d="M0 0 C2.0078125 0.42578125 2.0078125 0.42578125 3.68359375 2.10546875 C7.95409975 9.58830228 7.13213412 18.4139252 5.90625 26.61328125 C4.86211122 29.88188961 3.68651642 31.31468374 1.0078125 33.42578125 C-2.47991978 34.00706996 -4.21545994 33.90044809 -7.2421875 32.05078125 C-12.04919174 24.84027489 -11.47095475 15.64772717 -9.9921875 7.42578125 C-7.43306052 1.13459409 -6.72674811 0.35991826 0 0 Z " fill="#000000" transform="translate(207.9921875,362.57421875)"/>
</svg>
